<svg id="Ñëîé_1" data-name="Ñëîé 1" xmlns="http://www.w3.org/2000/svg" viewBox="0 0 359.24 311.57"><defs><style>.cls-1{fill:#b2d3ea;}.cls-2{fill:#396caa;}.cls-3{fill:#d4ecff;}.cls-4{fill:#5793ce;}.cls-5{fill:#fafdff;}.cls-6,.cls-7{fill:#173d7a;}.cls-7{opacity:0.5;}.cls-8{fill:#721bd5;}.cls-9{fill:#b45ef4;}.cls-10{fill:#7e23dc;}.cls-11{fill:#983be9;}.cls-12{fill:#ff2c9c;}.cls-13{fill:#274f89;}.cls-14{fill:#6614cf;}.cls-15{fill:#fdd762;}.cls-16{fill:#ffc2b0;}.cls-17{fill:#8a2ae3;}.cls-18{fill:#fff;}.cls-19{fill:#ea9c92;}.cls-20{fill:#d8892b;}.cls-21{fill:#d29fff;}.cls-22{fill:#e8a200;}.cls-23{fill:#f2b42a;}.cls-24{fill:#eead00;}</style></defs><ellipse class="cls-1" cx="292.55" cy="292.87" rx="24.95" ry="14.4"/><path class="cls-1" d="M208.42,291.82l-80.91-46.14c-3-1.7-2.59-4.69.83-6.66l46.55-26.88c3.42-2,8.59-2.19,11.55-.48l80.91,46.14c3,1.71,2.59,4.69-.82,6.66L220,291.34C216.55,293.32,211.38,293.53,208.42,291.82Z" transform="translate(17.97 0.69)"/><path class="cls-2" d="M274.57,242.27h0V53.37l-75.1-19.66-13.83-8c-3.18-1.83-8.72-1.6-12.39.52l-12.9,7.45-40.06,0L132.15,216a3.61,3.61,0,0,0,2.13,3.32l74.94,56.55c3.18,1.83,8.72,1.6,12.39-.51l49.94-28.84C273.67,245.32,274.69,243.74,274.57,242.27Z" transform="translate(17.97 0.69)"/><path class="cls-3" d="M179.89,24.5a14.23,14.23,0,0,0-6.64,1.74l-12.9,7.45-40.06,0V223.08a3.58,3.58,0,0,0,2.13,3.31l86.8,49.5a11.26,11.26,0,0,0,5.75,1.23l.9-190.6Z" transform="translate(17.97 0.69)"/><path class="cls-4" d="M210,276.28a14.13,14.13,0,0,0,9.9-.11V84.27H210Z" transform="translate(17.97 0.69)"/><path class="cls-3" d="M209.22,86.55l-86.8-49.5c-3.17-1.83-2.78-5,.89-7.15L173.25,1.06c3.67-2.11,9.21-2.34,12.39-.51l86.8,49.5c3.18,1.83,2.78,5-.89,7.15L221.61,86C217.94,88.15,212.4,88.38,209.22,86.55Z" transform="translate(17.97 0.69)"/><path class="cls-5" d="M271.55,53.69,221.61,82.52c-3.67,2.12-9.21,2.35-12.39.51l-86.8-49.49a4.68,4.68,0,0,1-1.58-1.41c-1.09,1.76-.6,3.66,1.58,4.92l86.8,49.5c3.18,1.83,8.72,1.6,12.39-.52L271.55,57.2c2.85-1.65,3.72-3.94,2.48-5.75A7,7,0,0,1,271.55,53.69Z" transform="translate(17.97 0.69)"/><path class="cls-6" d="M211.68,66.49,153.89,33c-1.49-.86-1.3-2.36.41-3.35l23.37-13.49a6.44,6.44,0,0,1,5.8-.24l57.79,33.5c1.49.85,1.3,2.35-.41,3.34l-23.38,13.5A6.45,6.45,0,0,1,211.68,66.49Z" transform="translate(17.97 0.69)"/><path class="cls-3" d="M180.48,34.49l-3.35-1.93c-.21-.12-.18-.33.06-.47l3.23-1.86a.91.91,0,0,1,.8,0l3.35,1.94c.21.12.18.32-.06.46l-3.23,1.87A.87.87,0,0,1,180.48,34.49Z" transform="translate(17.97 0.69)"/><path class="cls-3" d="M191.67,40.92,188.32,39c-.21-.12-.18-.33.06-.46l3.23-1.87a.87.87,0,0,1,.8,0l3.35,1.93c.21.12.18.33-.06.46l-3.23,1.87A.87.87,0,0,1,191.67,40.92Z" transform="translate(17.97 0.69)"/><path class="cls-3" d="M202.85,47.36l-3.34-1.94c-.21-.11-.18-.32.05-.46l3.24-1.87a.9.9,0,0,1,.8,0L207,45c.2.12.18.33-.06.47l-3.23,1.86A.9.9,0,0,1,202.85,47.36Z" transform="translate(17.97 0.69)"/><path class="cls-3" d="M214,53.79l-3.35-1.93c-.2-.12-.18-.33.06-.47L214,49.53a.93.93,0,0,1,.81,0l3.35,1.94c.2.12.18.32-.06.46l-3.24,1.87A.9.9,0,0,1,214,53.79Z" transform="translate(17.97 0.69)"/><path class="cls-4" d="M153.89,33l.07,0a2.93,2.93,0,0,1,.34-.24l23.37-13.5a6.48,6.48,0,0,1,5.8-.24l57.72,33.46c1.37-1,1.44-2.31.07-3.1l-57.79-33.5a6.44,6.44,0,0,0-5.8.24L154.3,29.64C152.59,30.63,152.4,32.13,153.89,33Z" transform="translate(17.97 0.69)"/><path class="cls-4" d="M199.63,124l-64.14-37a8,8,0,0,1-3.34-6.4V68.79c0-2.46,1.49-3.59,3.34-2.53l64.14,37a8,8,0,0,1,3.35,6.4v11.75C203,123.91,201.48,125,199.63,124Z" transform="translate(17.97 0.69)"/><path class="cls-6" d="M194.78,113.59l-3-1.75a1.74,1.74,0,0,1-.73-1.39v-3.22c0-.54.33-.78.73-.55l3,1.74a1.73,1.73,0,0,1,.73,1.39V113C195.51,113.57,195.19,113.82,194.78,113.59Z" transform="translate(17.97 0.69)"/><path class="cls-6" d="M184.7,107.77l-3-1.74a1.77,1.77,0,0,1-.73-1.4v-3.22c0-.54.33-.78.73-.55l3,1.74a1.73,1.73,0,0,1,.73,1.39v3.22C185.43,107.75,185.11,108,184.7,107.77Z" transform="translate(17.97 0.69)"/><path class="cls-4" d="M199.63,166.43l-64.14-37a8,8,0,0,1-3.34-6.4V111.25c0-2.47,1.49-3.6,3.34-2.53l64.14,37a8,8,0,0,1,3.35,6.4V163.9C203,166.36,201.48,167.5,199.63,166.43Z" transform="translate(17.97 0.69)"/><path class="cls-6" d="M194.78,156l-3-1.74a1.75,1.75,0,0,1-.73-1.39v-3.22c0-.54.33-.79.73-.56l3,1.75a1.71,1.71,0,0,1,.73,1.39v3.22C195.51,156,195.19,156.27,194.78,156Z" transform="translate(17.97 0.69)"/><path class="cls-3" d="M184.7,150.22l-3-1.74a1.75,1.75,0,0,1-.73-1.39v-3.22c0-.54.33-.79.73-.55l3,1.74a1.71,1.71,0,0,1,.73,1.39v3.22C185.43,150.21,185.11,150.45,184.7,150.22Z" transform="translate(17.97 0.69)"/><path class="cls-4" d="M199.63,208.88l-64.14-37a8,8,0,0,1-3.34-6.39V153.71c0-2.47,1.49-3.6,3.34-2.54l64.14,37A8,8,0,0,1,203,194.6v11.75C203,208.82,201.48,210,199.63,208.88Z" transform="translate(17.97 0.69)"/><path class="cls-3" d="M194.78,198.5l-3-1.74a1.77,1.77,0,0,1-.73-1.4v-3.22c0-.54.33-.78.73-.55l3,1.74a1.73,1.73,0,0,1,.73,1.4v3.21C195.51,198.48,195.19,198.73,194.78,198.5Z" transform="translate(17.97 0.69)"/><path class="cls-6" d="M184.7,192.68l-3-1.74a1.77,1.77,0,0,1-.73-1.4v-3.22c0-.53.33-.78.73-.55l3,1.74a1.73,1.73,0,0,1,.73,1.4v3.22C185.43,192.66,185.11,192.91,184.7,192.68Z" transform="translate(17.97 0.69)"/><path class="cls-4" d="M199.63,251.34l-64.14-37a8,8,0,0,1-3.34-6.4V196.16c0-2.46,1.49-3.6,3.34-2.53l64.14,37a8,8,0,0,1,3.35,6.4v11.75C203,251.27,201.48,252.41,199.63,251.34Z" transform="translate(17.97 0.69)"/><path class="cls-3" d="M194.78,241l-3-1.74a1.75,1.75,0,0,1-.73-1.39V234.6c0-.54.33-.79.73-.55l3,1.74a1.71,1.71,0,0,1,.73,1.39v3.22C195.51,240.94,195.19,241.18,194.78,241Z" transform="translate(17.97 0.69)"/><path class="cls-3" d="M184.7,235.13l-3-1.74A1.74,1.74,0,0,1,181,232v-3.22c0-.54.33-.79.73-.55l3,1.74a1.71,1.71,0,0,1,.73,1.39v3.22C185.43,235.12,185.11,235.37,184.7,235.13Z" transform="translate(17.97 0.69)"/><path class="cls-6" d="M231.36,124l32.86-18.81a8,8,0,0,0,3.35-6.4V87c0-2.46-1.5-3.6-3.35-2.53l-32.86,18.81a8,8,0,0,0-3.35,6.4v11.75C228,123.91,229.51,125,231.36,124Z" transform="translate(17.97 0.69)"/><path class="cls-6" d="M231.36,166.43l32.86-18.81a8,8,0,0,0,3.35-6.4V129.47c0-2.47-1.5-3.6-3.35-2.53l-32.86,18.81a8,8,0,0,0-3.35,6.4V163.9C228,166.36,229.51,167.5,231.36,166.43Z" transform="translate(17.97 0.69)"/><path class="cls-6" d="M231.36,208.88l32.86-18.81a8,8,0,0,0,3.35-6.4V171.92c0-2.46-1.5-3.6-3.35-2.53l-32.86,18.82A8,8,0,0,0,228,194.6v11.75C228,208.82,229.51,210,231.36,208.88Z" transform="translate(17.97 0.69)"/><path class="cls-6" d="M231.36,251.34l32.86-18.81a8,8,0,0,0,3.35-6.4V214.38c0-2.47-1.5-3.6-3.35-2.53l-32.86,18.81a8,8,0,0,0-3.35,6.4v11.75C228,251.27,229.51,252.41,231.36,251.34Z" transform="translate(17.97 0.69)"/><path class="cls-7" d="M188.17,99.34,155.48,76.41a324.9,324.9,0,0,0-35.19-21.56V223.08a3.58,3.58,0,0,0,2.13,3.31l25.84,14.74c41.33-7.69,39.91-53.72,39.91-53.72Z" transform="translate(17.97 0.69)"/><path class="cls-8" d="M168.07,195.41V107.34L135.38,84.42A309.64,309.64,0,0,0,85.74,55.76L53.05,40.94l-13.2,7.72,14.6,10.59V128.2S52.66,184.4,112,249.25a69.76,69.76,0,0,0,20-1.42L131,251l11.61-6.84c1-.54,2-1.11,2.89-1.7l.17-.09h0C169,227.23,168.07,195.41,168.07,195.41Z" transform="translate(17.97 0.69)"/><path class="cls-9" d="M110.49,68.52Q98.1,61.37,85.74,55.76L53.05,40.94l-13.2,7.72,14.6,10.59v41.62Z" transform="translate(17.97 0.69)"/><path class="cls-10" d="M99.11,62.28,71.56,78.19l22.69,13.1,27.56-15.91Q110.45,68.2,99.11,62.28Z" transform="translate(17.97 0.69)"/><path class="cls-11" d="M154.87,203.14V115.07L122.18,92.15A309.64,309.64,0,0,0,72.54,63.49L39.85,48.66v88.07s-1.79,56.21,57.51,121.06C156.66,261.42,154.87,203.14,154.87,203.14Z" transform="translate(17.97 0.69)"/><path class="cls-8" d="M132.09,237.85c-7.14,6.92-17.28,10.38-30.2,10.24-52.74-59.4-52.2-110.57-52.19-111V64l18.76,8.5a300.45,300.45,0,0,1,48.05,27.76l28.5,20v83.25C145,203.66,145.3,225,132.09,237.85Z" transform="translate(17.97 0.69)"/><path class="cls-12" d="M102.41,161a5.72,5.72,0,0,0,2.58,4.47c1.43.82,2.59.16,2.59-1.49a5.69,5.69,0,0,0-2.59-4.47C103.57,158.69,102.41,159.36,102.41,161Z" transform="translate(17.97 0.69)"/><path class="cls-12" d="M94.1,156.21a5.71,5.71,0,0,0,2.58,4.47c1.43.83,2.58.16,2.58-1.49a5.68,5.68,0,0,0-2.58-4.47C95.26,153.89,94.1,154.56,94.1,156.21Z" transform="translate(17.97 0.69)"/><path class="cls-12" d="M85.79,151.41a5.68,5.68,0,0,0,2.58,4.47c1.43.83,2.58.16,2.58-1.49a5.7,5.7,0,0,0-2.58-4.47C86.94,149.09,85.79,149.76,85.79,151.41Z" transform="translate(17.97 0.69)"/><path class="cls-1" d="M9.58,251.58l-20.19-11.74c-1.7-1-1.49-2.71.48-3.84L9.11,224.78a7.42,7.42,0,0,1,6.65-.27L36,236.26c1.7,1,1.49,2.7-.48,3.83L16.23,251.31A7.39,7.39,0,0,1,9.58,251.58Z" transform="translate(17.97 0.69)"/><path class="cls-6" d="M43.3,214.24h0v-5.07l-26.94,0h.18c-2.13-1.23-5.87-1.08-8.33.34l.8-.33H-18v5.41a2.42,2.42,0,0,0,1.43,2.23L8.8,231.53c2.13,1.23,5.86,1.08,8.33-.35l24.14-14.06C42.69,216.3,43.38,215.23,43.3,214.24Z" transform="translate(17.97 0.69)"/><path class="cls-2" d="M12.68,208.32a9.62,9.62,0,0,0-4.47,1.17l.8-.33H-18v5.41a2.42,2.42,0,0,0,1.43,2.23L8.8,231.53a7.49,7.49,0,0,0,3.86.82Z" transform="translate(17.97 0.69)"/><path class="cls-1" d="M-14.91,209.15H-18v5.41a2.42,2.42,0,0,0,1.43,2.23l1.62.94Z" transform="translate(17.97 0.69)"/><path class="cls-13" d="M9.33,231.79a9.47,9.47,0,0,0,6.67-.08v-7.08H9.33Z" transform="translate(17.97 0.69)"/><path class="cls-3" d="M8.8,226.16l-25.33-14.74c-2.13-1.23-1.86-3.38.6-4.81L8.21,192.55c2.46-1.43,6.2-1.58,8.33-.35l25.33,14.74c2.13,1.23,1.86,3.39-.6,4.81L17.13,225.81C14.66,227.24,10.93,227.39,8.8,226.16Z" transform="translate(17.97 0.69)"/><path class="cls-2" d="M8.4,205.5a5.24,5.24,0,0,1-4.77,0c-1.31-.77-1.3-2,0-2.75a5.24,5.24,0,0,1,4.77,0C9.73,203.52,9.72,204.75,8.4,205.5Z" transform="translate(17.97 0.69)"/><path class="cls-2" d="M16.05,210a5.27,5.27,0,0,1-4.77,0c-1.31-.77-1.3-2,0-2.76a5.27,5.27,0,0,1,4.77,0C17.38,208,17.38,209.22,16.05,210Z" transform="translate(17.97 0.69)"/><path class="cls-2" d="M23.71,214.44a5.31,5.31,0,0,1-4.77,0c-1.32-.77-1.31-2,0-2.76a5.27,5.27,0,0,1,4.77,0C25,212.45,25,213.69,23.71,214.44Z" transform="translate(17.97 0.69)"/><path class="cls-14" d="M285.9,149s-.53,10.92-1.36,18.26S266,161.59,266,161.59v-8.35Z" transform="translate(17.97 0.69)"/><path class="cls-6" d="M276.48,284.83c-.26.67-4.84,6.24-9.42,7.63a10.59,10.59,0,0,1-4.21.59,1.4,1.4,0,0,1-1.13-1.85,17.43,17.43,0,0,1,8.79-9.69C278.28,277.66,276.48,284.83,276.48,284.83Z" transform="translate(17.97 0.69)"/><path class="cls-6" d="M278,287a37.73,37.73,0,0,0-2.26,7.44c-.32,2.06.81,4.74,1.75,6.52a1.9,1.9,0,0,0,3,.52,11,11,0,0,0,3.72-7.11c.53-5.71,0-6.7,0-6.7Z" transform="translate(17.97 0.69)"/><path class="cls-15" d="M289,218a108,108,0,0,1,0,15.16c-.6,8-2.73,45.21-3.13,54.17,0,0,.2,2.71-5.05,2.12s-4.83-3.61-4.83-3.61-7.38-.1-7.61-4.45-7.55-51.91-7.55-69Z" transform="translate(17.97 0.69)"/><polygon class="cls-16" points="281.37 181.51 277.12 207.53 273.25 207.46 273.61 183.62 281.37 181.51"/><path class="cls-17" d="M265.19,157.79s-5.74-.15-7.74,8.15-3.56,18.68-1.82,19.54c5.21,2.6,8.51-.44,8.51-.44Z" transform="translate(17.97 0.69)"/><path class="cls-11" d="M263.47,158.15a4.72,4.72,0,0,1,3.1-.18c4.89,1.41,23.27,6.81,26.3,9.4,3.5,3-5.25,19.8-5.12,25.32s.75,12,1.23,18,1.15,9.28-3.75,11.83-13.27,2.67-19.54-2.11-5.13-8-4.87-11.5,2.4-18.46,2.21-22.71a16.26,16.26,0,0,1-3.84-4.42c-1.64-2.79,1.25-7.92,2.45-11.25s-.67-7.14-.3-9.86A3.06,3.06,0,0,1,263.47,158.15Z" transform="translate(17.97 0.69)"/><path class="cls-18" d="M269.35,163.88c-.39,3,2.39,5.88,6.2,6.37s7.22-1.57,7.61-4.6-2.39-5.88-6.2-6.37S269.74,160.85,269.35,163.88Z" transform="translate(17.97 0.69)"/><path class="cls-16" d="M271.32,164.13c-.28,2.17,1.71,4.2,4.43,4.55s5.16-1.12,5.44-3.28-1.71-4.21-4.43-4.56S271.59,162,271.32,164.13Z" transform="translate(17.97 0.69)"/><path class="cls-16" d="M274,157s3.32-2.73,4-1.34,1.19,7.31,1.19,7.31l-6.59,1.77,1-6S272.28,157.63,274,157Z" transform="translate(17.97 0.69)"/><path class="cls-16" d="M263.73,150.52a9.84,9.84,0,1,0,9.24-10.4A9.84,9.84,0,0,0,263.73,150.52Z" transform="translate(17.97 0.69)"/><path class="cls-19" d="M278.46,157.4c.06.31.11.64.17,1-.67,3.42-5.79,4.92-5.79,4.92l.76-4.55s-.62-.53-.45-1.05C275.18,157.06,277.73,156.49,278.46,157.4Z" transform="translate(17.97 0.69)"/><path class="cls-16" d="M263.73,150.52a9.84,9.84,0,1,0,9.24-10.4A9.84,9.84,0,0,0,263.73,150.52Z" transform="translate(17.97 0.69)"/><polygon class="cls-16" points="315.77 192.28 314.67 218.62 310.81 219.02 308.31 195.31 315.77 192.28"/><path class="cls-17" d="M285.15,189.4c1.27-5.63,3.79-18.05,3.79-18.05L290,183.71c-1.24,3.66-2.31,7-2.26,9,.07,3.23.32,6.81.61,10.42h0S283.87,195,285.15,189.4Z" transform="translate(17.97 0.69)"/><path class="cls-9" d="M292.14,166.83s3.08,1.17,4.82,10.63,3,18.93-.06,20.15-5.7,2.14-6.62-.39-1.48-14.72-1.59-19.1S288.41,167.69,292.14,166.83Z" transform="translate(17.97 0.69)"/><path class="cls-20" d="M276,285.83a16.29,16.29,0,0,1-2.11-.22h0l-1.44-57.9Z" transform="translate(17.97 0.69)"/><path class="cls-11" d="M281.6,254.55l2-2.67,21.54-12.47a3,3,0,0,0,1.25-2.4l0-17.63,1.24-1.62-1.16-.67h0a.76.76,0,0,0-.84,0l-24.41,14.13a3,3,0,0,0-1.25,2.39l0,19.21a1.12,1.12,0,0,0,.45,1h0Z" transform="translate(17.97 0.69)"/><path class="cls-21" d="M296.5,244.44l1.53-.89,8.4-14.59v-9.58l1.24-1.62-1.16-.67h0a.76.76,0,0,0-.84,0l-24.41,14.13a2.5,2.5,0,0,0-.93,1.08Z" transform="translate(17.97 0.69)"/><path class="cls-21" d="M307.11,218.48l.55-.72-1.16-.67h0a.76.76,0,0,0-.84,0l-.43.24Z" transform="translate(17.97 0.69)"/><path class="cls-11" d="M281,231.43a3.14,3.14,0,0,0-1,2l2.39,1.38,1.14-2Z" transform="translate(17.97 0.69)"/><path class="cls-8" d="M282.4,231.94l24.41-14.13c.69-.4,1.25,0,1.26.94l0,19.21a3,3,0,0,1-1.25,2.4l-24.42,14.13c-.69.4-1.25,0-1.25-.94l0-19.21A3,3,0,0,1,282.4,231.94Z" transform="translate(17.97 0.69)"/><path class="cls-16" d="M296.67,217.71s1,6.15.86,8.12-1.21,5.22-2,5.15,0-7.92-1.43-7.14-1.55,2.13-2.19,1.65,1.11-7.18.65-10.09S296.67,217.71,296.67,217.71Z" transform="translate(17.97 0.69)"/><path class="cls-16" d="M255.28,206.77s-1,6.15-.86,8.12,1.2,5.21,2,5.15,0-7.92,1.44-7.14,1.55,2.12,2.18,1.65-1.11-7.18-.64-10.09S255.28,206.77,255.28,206.77Z" transform="translate(17.97 0.69)"/><path class="cls-19" d="M269.77,150.8c-4.94,1.75-5.9.68-5.94.63a6.85,6.85,0,0,1-.1-.91,9.62,9.62,0,0,1,.32-3.14l12.81-1.73A14,14,0,0,1,269.77,150.8Z" transform="translate(17.97 0.69)"/><path class="cls-14" d="M263.37,140.72c1.17-1,5.36-5.93,12.88-4.77,4.71.73,8.67,3.94,9.55,11.25a16.83,16.83,0,0,1-4.55,13.37,3.89,3.89,0,0,1-.54-.27c-1.88-1.24-2.08-1.92-2.08-1.92l-.42-3.74a1,1,0,0,1,.94-1,1.9,1.9,0,0,0,1.38-.84c1.08-1.41.58-3.62-1.58-3.7a1.65,1.65,0,0,1-1.73-1.23.88.88,0,0,0-1.15-.6c-2.46.89-8.52,2.81-12.41,1.71C258.67,147.53,262.21,141.71,263.37,140.72Z" transform="translate(17.97 0.69)"/><path class="cls-18" d="M269,155.25l-3-.83a7.3,7.3,0,0,0,3.54,2.84c2.09.57,2.42-1.2,2.42-1.2Z" transform="translate(17.97 0.69)"/><polygon class="cls-21" points="309.52 225.99 312.08 224.52 311.12 226.09 309.82 226.57 309.52 225.99"/><path class="cls-1" d="M68,257.39c-10.56-6.09-27.68-6.09-38.24,0s-10.56,16,0,22.08,27.68,6.1,38.24,0S78.58,263.49,68,257.39ZM48.24,268.64a10.85,10.85,0,0,1-9.83,0c-2.72-1.57-2.72-4.11,0-5.68a10.91,10.91,0,0,1,9.83,0C51,264.53,51,267.07,48.24,268.64Z" transform="translate(17.97 0.69)"/><path class="cls-1" d="M73.72,274.57a25.06,25.06,0,0,1-5.23,3.93,37.1,37.1,0,0,1-6.8,3l5.17,3,7.79.4,3.85,2.22-1.57.91,2.91,1.68L83,287.91l5.1,2.94-5.12,3L86.73,296l3.65,2.11,4.55-2.63,6.74,3.89-2.57,1.49,4.33,2.5,2.57-1.49,2,1.18-2,4.07,6.55,3.78h24.07Z" transform="translate(17.97 0.69)"/><path class="cls-22" d="M75.94,266.29V259l-2.16,1.21A18.46,18.46,0,0,0,68,255.26c-10.56-6.1-27.68-6.1-38.24,0A17.7,17.7,0,0,0,23.43,261L21.86,259v7.31c0,4,2.63,8,7.92,11,10.56,6.09,27.68,6.09,38.24,0C73.3,274.29,75.94,270.29,75.94,266.29Zm-27.79-4.77a10.85,10.85,0,0,1-9.83,0c-2.72-1.57-2.72-4.11,0-5.68a10.91,10.91,0,0,1,9.83,0C50.87,257.41,50.87,260,48.15,261.52Z" transform="translate(17.97 0.69)"/><path class="cls-15" d="M46.63,272.05,35,266.3,24.6,259.45A14.07,14.07,0,0,0,23.43,261L21.86,259v7.31c0,4,2.63,8,7.92,11a38,38,0,0,0,16.85,4.51Z" transform="translate(17.97 0.69)"/><path class="cls-15" d="M68,247.94c-10.56-6.1-27.68-6.1-38.24,0s-10.56,16,0,22.07,27.68,6.1,38.24,0S78.58,254,68,247.94ZM48.24,259.18a10.85,10.85,0,0,1-9.83,0c-2.72-1.56-2.72-4.11,0-5.67a10.85,10.85,0,0,1,9.83,0C51,255.07,51,257.62,48.24,259.18Z" transform="translate(17.97 0.69)"/><path class="cls-22" d="M53.55,251.8H38.87a36.66,36.66,0,0,0-3.9,1.12v12.43H53.55Zm-5.4,9.72a10.85,10.85,0,0,1-9.83,0c-2.72-1.57-2.72-4.11,0-5.68a10.91,10.91,0,0,1,9.83,0C50.87,257.41,50.87,260,48.15,261.52Z" transform="translate(17.97 0.69)"/><path class="cls-23" d="M65.75,249.25c-9.31-5.38-24.4-5.38-33.7,0s-9.31,14.08,0,19.46,24.39,5.37,33.7,0S75.06,254.62,65.75,249.25Zm-17.51,9.93a10.85,10.85,0,0,1-9.83,0c-2.72-1.56-2.72-4.11,0-5.67a10.85,10.85,0,0,1,9.83,0C51,255.07,51,257.62,48.24,259.18Z" transform="translate(17.97 0.69)"/><path class="cls-22" d="M32.05,251.26c9.3-5.37,24.39-5.37,33.7,0,4.21,2.43,6.51,5.55,6.91,8.72.49-3.85-1.81-7.79-6.91-10.73-9.31-5.38-24.4-5.38-33.7,0-5.1,2.94-7.4,6.88-6.91,10.73C25.54,256.81,27.84,253.69,32.05,251.26Z" transform="translate(17.97 0.69)"/><path class="cls-23" d="M73.72,272.38a25.06,25.06,0,0,1-5.23,3.93,37.1,37.1,0,0,1-6.8,3l5.17,3,7.79.4,3.85,2.22-1.57.91,2.91,1.69L83,285.72l5.1,2.94-5.12,3,3.76,2.17,3.65,2.11,4.55-2.63,6.74,3.9-2.57,1.48,4.33,2.5,2.57-1.48,2,1.17-2,4.07,6.55,3.78h24.07Z" transform="translate(17.97 0.69)"/><path class="cls-15" d="M73.72,267.1A25.42,25.42,0,0,1,68.49,271a37.1,37.1,0,0,1-6.8,3l5.17,3,7.79.4,3.85,2.22-1.57.91,2.91,1.68L83,280.44l5.1,2.94-5.12,3,3.76,2.17,3.65,2.11L94.93,288l6.74,3.89-2.57,1.49,4.33,2.5,2.57-1.49,2,1.18-2,4.07,6.55,3.78h24.07Z" transform="translate(17.97 0.69)"/><rect class="cls-22" x="130.51" y="304.1" width="24.07" height="5.28"/><polygon class="cls-22" points="121.4 301.84 121.4 296.55 123.97 295.07 123.97 300.35 121.4 301.84"/><polygon class="cls-24" points="117.06 294.05 117.06 299.34 121.4 301.84 121.4 296.55 117.06 294.05"/><polygon class="cls-22" points="112.9 288.68 112.9 293.96 108.35 296.59 108.35 291.3 112.9 288.68"/><polygon class="cls-24" points="100.93 287.02 100.93 292.31 108.35 296.59 108.35 291.3 100.93 287.02"/><polygon class="cls-24" points="123.97 300.35 123.95 305.6 130.51 309.38 130.51 304.1 123.97 300.35"/><polygon class="cls-24" points="97.81 282.94 97.81 288.22 94.89 286.54 94.89 281.25 97.81 282.94"/><polygon class="cls-22" points="84.83 277.72 84.83 283 92.61 283.4 92.61 278.12 84.83 277.72"/><polygon class="cls-22" points="138.15 300.35 92.11 273.75 94.67 272.27 143.24 300.33 138.15 300.35"/><polygon class="cls-23" points="94.67 273.55 141.04 300.34 143.24 300.33 94.67 272.27 92.11 273.75 93.22 274.39 94.67 273.55"/><polygon class="cls-22" points="84.83 283 84.83 277.72 79.66 274.74 79.66 280.02 84.83 283"/><polygon class="cls-22" points="100.96 281.12 100.96 286.41 97.81 288.22 97.81 282.94 100.96 281.12"/><path class="cls-15" d="M65.75,249.25c-5.23-3-12.29-4.35-19.12-4v2c6.83-.38,13.89.94,19.12,4,4.21,2.43,6.51,5.55,6.91,8.72C73.15,256.13,70.85,252.19,65.75,249.25Z" transform="translate(17.97 0.69)"/><path class="cls-1" d="M307.42,127.72l-21-12.22c-1.78-1-1.55-2.81.49-4l20-11.66a7.66,7.66,0,0,1,6.91-.29l21,12.22c1.77,1,1.55,2.81-.49,4l-20,11.66A7.69,7.69,0,0,1,307.42,127.72Z" transform="translate(17.97 0.69)"/><path class="cls-8" d="M341.26,89.83h0V84.76H314.5c-2.13-1.23-5.87-1.08-8.33.35l.79-.34H280v5.41a2.44,2.44,0,0,0,1.43,2.24l25.32,14.73c2.14,1.23,5.87,1.08,8.34-.35l24.14-14.06C340.65,91.89,341.34,90.83,341.26,89.83Z" transform="translate(17.97 0.69)"/><path class="cls-11" d="M310.64,83.91a9.63,9.63,0,0,0-4.47,1.18l.79-.34H280v5.41a2.44,2.44,0,0,0,1.43,2.24l25.32,14.73a7.65,7.65,0,0,0,3.87.83Z" transform="translate(17.97 0.69)"/><path class="cls-9" d="M283.05,84.74H280v5.41a2.44,2.44,0,0,0,1.43,2.24l1.62.93Z" transform="translate(17.97 0.69)"/><path class="cls-10" d="M307.29,107.38a9.49,9.49,0,0,0,6.66-.07v-7.09h-6.66Z" transform="translate(17.97 0.69)"/><path class="cls-17" d="M306.75,101.75,281.43,87c-2.13-1.24-1.87-3.39.6-4.82l24.14-14.06c2.46-1.42,6.2-1.58,8.33-.34l25.32,14.73c2.14,1.23,1.87,3.39-.59,4.81L315.09,101.4C312.62,102.83,308.89,103,306.75,101.75Z" transform="translate(17.97 0.69)"/><path class="cls-9" d="M304.82,81a5.31,5.31,0,0,1-4.77,0c-1.31-.77-1.31-2,0-2.76a5.27,5.27,0,0,1,4.77,0C306.15,79,306.14,80.25,304.82,81Z" transform="translate(17.97 0.69)"/><path class="cls-9" d="M312.47,85.47a5.27,5.27,0,0,1-4.77,0c-1.31-.76-1.31-2,0-2.75a5.31,5.31,0,0,1,4.77,0C313.8,83.48,313.79,84.71,312.47,85.47Z" transform="translate(17.97 0.69)"/><path class="cls-9" d="M320.12,89.94a5.27,5.27,0,0,1-4.77,0c-1.31-.76-1.3-2,0-2.75a5.24,5.24,0,0,1,4.77,0C321.45,88,321.44,89.18,320.12,89.94Z" transform="translate(17.97 0.69)"/></svg>